<svg xmlns="http://www.w3.org/2000/svg" width="127.662" height="49.307" viewBox="0 0 127.662 49.307">
  <g id="Navbar" transform="translate(-2549.6 10782)">
    <path id="Path_77784" data-name="Path 77784" d="M4.733-11.867v6.524a5.681,5.681,0,0,0,.105,1.23,1.6,1.6,0,0,0,.291.672.8.8,0,0,0,.437.275,2.46,2.46,0,0,0,.542.057H7v.389H1.074v-.389h.437a1.8,1.8,0,0,0,.656-.105A.92.92,0,0,0,2.6-3.578a1.893,1.893,0,0,0,.251-.688,5.956,5.956,0,0,0,.081-1.077v-6.524H1.009v-.793H2.936v-.648a6.193,6.193,0,0,1,.291-1.951,4.589,4.589,0,0,1,.826-1.522,3.621,3.621,0,0,1,1.3-.988,4.135,4.135,0,0,1,1.724-.348,3.252,3.252,0,0,1,.9.138,3.694,3.694,0,0,1,.882.38,2.438,2.438,0,0,1,.672.583,1.158,1.158,0,0,1,.267.728.862.862,0,0,1-.275.607.841.841,0,0,1-.615.283.97.97,0,0,1-.251-.032.924.924,0,0,1-.267-.13,1.6,1.6,0,0,1-.308-.283,5.516,5.516,0,0,1-.372-.494,2.955,2.955,0,0,0-.745-.8,1.376,1.376,0,0,0-.745-.2,1.355,1.355,0,0,0-.85.267,1.469,1.469,0,0,0-.494.834,15.734,15.734,0,0,0-.146,2.865v.712H7.29v.793Zm8.835-1.085V-4.97a5.593,5.593,0,0,0,.081,1.093,1.013,1.013,0,0,0,.267.55.772.772,0,0,0,.469.194q.283.024.688.024v.389H10.249v-.389a3.522,3.522,0,0,0,.8-.073.8.8,0,0,0,.461-.283,1.134,1.134,0,0,0,.2-.575,8.722,8.722,0,0,0,.04-.931V-8.791q0-.939-.032-1.489a3.818,3.818,0,0,0-.113-.818.513.513,0,0,0-.235-.34.93.93,0,0,0-.4-.073,1.43,1.43,0,0,0-.332.04,3.869,3.869,0,0,0-.4.121l-.162-.389,2.995-1.214Zm-.907-5.2a1.066,1.066,0,0,1,.785.316,1.066,1.066,0,0,1,.316.785,1.073,1.073,0,0,1-.316.777,1.052,1.052,0,0,1-.785.324,1.052,1.052,0,0,1-.785-.324,1.073,1.073,0,0,1-.316-.777,1.066,1.066,0,0,1,.316-.785A1.066,1.066,0,0,1,12.661-18.148Zm8.43,7.3q1.732-2.1,3.319-2.1a2.742,2.742,0,0,1,1.02.186,1.992,1.992,0,0,1,.818.615A3.08,3.08,0,0,1,26.789-11a6.989,6.989,0,0,1,.194,1.789V-4.97a5.579,5.579,0,0,0,.073,1.02,1.143,1.143,0,0,0,.243.559.775.775,0,0,0,.461.235,4.674,4.674,0,0,0,.745.049v.389H23.6v-.389h.194a2.655,2.655,0,0,0,.769-.089.749.749,0,0,0,.421-.3,1.314,1.314,0,0,0,.178-.575,8.345,8.345,0,0,0,.04-.9V-9.034a4.144,4.144,0,0,0-.348-1.975,1.263,1.263,0,0,0-1.19-.6A3.54,3.54,0,0,0,21.091-10.2V-4.97a9.515,9.515,0,0,0,.04,1,1.037,1.037,0,0,0,.2.559.781.781,0,0,0,.486.251,5.44,5.44,0,0,0,.89.057v.389H17.788v-.389H18a1.941,1.941,0,0,0,.639-.089.79.79,0,0,0,.4-.3,1.379,1.379,0,0,0,.2-.575,5.983,5.983,0,0,0,.057-.9V-8.645q0-1.068-.032-1.651a3.557,3.557,0,0,0-.121-.85q-.089-.267-.243-.316a1.279,1.279,0,0,0-.38-.049,1.43,1.43,0,0,0-.332.04,3.868,3.868,0,0,0-.4.121l-.162-.389,2.995-1.214h.469Zm12.817-.1a4.023,4.023,0,0,1,3.108-2.007,3.246,3.246,0,0,1,1.441.34,3.691,3.691,0,0,1,1.222.971,4.884,4.884,0,0,1,.842,1.538,6.178,6.178,0,0,1,.316,2.04,5.861,5.861,0,0,1-.421,2.242,5.809,5.809,0,0,1-1.133,1.789,5.262,5.262,0,0,1-1.635,1.19,4.554,4.554,0,0,1-1.943.429,6.54,6.54,0,0,1-3.594-1.263v-10.3q0-1.02-.04-1.578a3.95,3.95,0,0,0-.121-.818q-.081-.259-.235-.308a1.215,1.215,0,0,0-.364-.049,1.979,1.979,0,0,0-.761.178l-.146-.389,2.979-1.214h.486Zm0,.7v5.941a3.371,3.371,0,0,0,2.347,1.1,1.955,1.955,0,0,0,.971-.275,2.719,2.719,0,0,0,.866-.809,4.6,4.6,0,0,0,.623-1.327,6.259,6.259,0,0,0,.243-1.829,5.592,5.592,0,0,0-.235-1.684,3.863,3.863,0,0,0-.631-1.247,2.862,2.862,0,0,0-.9-.769,2.179,2.179,0,0,0-1.036-.267,2.553,2.553,0,0,0-.5.049,2.355,2.355,0,0,0-.51.17,2.843,2.843,0,0,0-.567.356Q34.28-10.6,33.908-10.248Zm15.132-2.7a4.491,4.491,0,0,1,1.91.4,4.793,4.793,0,0,1,1.514,1.093,5.057,5.057,0,0,1,1,1.619,5.349,5.349,0,0,1,.364,1.967,5.985,5.985,0,0,1-.4,2.218,5.338,5.338,0,0,1-1.077,1.724,4.861,4.861,0,0,1-1.57,1.117,4.526,4.526,0,0,1-1.862.4,4.257,4.257,0,0,1-1.886-.421,4.669,4.669,0,0,1-1.489-1.133,5.254,5.254,0,0,1-.971-1.651,5.636,5.636,0,0,1-.348-1.975A5.585,5.585,0,0,1,44.6-9.625a5.723,5.723,0,0,1,1.02-1.708,4.907,4.907,0,0,1,1.522-1.182A4.176,4.176,0,0,1,49.04-12.951Zm-.34.712a2.135,2.135,0,0,0-.907.2,2.085,2.085,0,0,0-.777.648,3.556,3.556,0,0,0-.55,1.157,6.18,6.18,0,0,0-.21,1.732,9.084,9.084,0,0,0,.219,2.015A6.373,6.373,0,0,0,47.1-4.792a3.635,3.635,0,0,0,.988,1.166,2.107,2.107,0,0,0,1.3.437,2.3,2.3,0,0,0,.963-.2,1.925,1.925,0,0,0,.769-.656,3.527,3.527,0,0,0,.51-1.19,7.482,7.482,0,0,0,.186-1.805,9.274,9.274,0,0,0-.21-2.015,6.006,6.006,0,0,0-.607-1.651,3.4,3.4,0,0,0-.971-1.117A2.2,2.2,0,0,0,48.7-12.239Zm13.335-.712a4.491,4.491,0,0,1,1.91.4,4.793,4.793,0,0,1,1.514,1.093,5.057,5.057,0,0,1,1,1.619,5.349,5.349,0,0,1,.364,1.967,5.985,5.985,0,0,1-.4,2.218,5.338,5.338,0,0,1-1.077,1.724,4.861,4.861,0,0,1-1.57,1.117,4.526,4.526,0,0,1-1.862.4,4.257,4.257,0,0,1-1.886-.421,4.669,4.669,0,0,1-1.489-1.133,5.254,5.254,0,0,1-.971-1.651,5.636,5.636,0,0,1-.348-1.975A5.585,5.585,0,0,1,57.6-9.625a5.723,5.723,0,0,1,1.02-1.708,4.907,4.907,0,0,1,1.522-1.182A4.176,4.176,0,0,1,62.036-12.951Zm-.34.712a2.135,2.135,0,0,0-.907.2,2.085,2.085,0,0,0-.777.648,3.556,3.556,0,0,0-.55,1.157,6.18,6.18,0,0,0-.21,1.732,9.084,9.084,0,0,0,.219,2.015,6.373,6.373,0,0,0,.623,1.692,3.635,3.635,0,0,0,.988,1.166,2.107,2.107,0,0,0,1.3.437,2.3,2.3,0,0,0,.963-.2,1.925,1.925,0,0,0,.769-.656,3.527,3.527,0,0,0,.51-1.19A7.483,7.483,0,0,0,64.8-7.042a9.275,9.275,0,0,0-.21-2.015,6.006,6.006,0,0,0-.607-1.651,3.4,3.4,0,0,0-.971-1.117A2.2,2.2,0,0,0,61.7-12.239ZM73.1-18.148v9.859l2.542-2.266.542-.518A3.8,3.8,0,0,0,76.5-11.4a1.025,1.025,0,0,0,.138-.2.374.374,0,0,0,.032-.154.46.46,0,0,0-.178-.372,1.093,1.093,0,0,0-.6-.178v-.356h4.322v.356a6.974,6.974,0,0,0-.818.073,3,3,0,0,0-.68.186,3.127,3.127,0,0,0-.623.348,7.217,7.217,0,0,0-.664.542L74.885-8.791l2.542,3.222q.534.68.89,1.093a7.615,7.615,0,0,0,.55.591q.243.243.413.389a1.552,1.552,0,0,0,.364.235,1.529,1.529,0,0,0,.437.121,4.961,4.961,0,0,0,.631.032v.389H75.889v-.389a1.055,1.055,0,0,0,.567-.13.386.386,0,0,0,.146-.324,1.759,1.759,0,0,0-.437-.793L73.1-8.224v3.27a7.818,7.818,0,0,0,.032.8,1.807,1.807,0,0,0,.105.478.736.736,0,0,0,.17.267.984.984,0,0,0,.227.154.927.927,0,0,0,.4.105q.267.024.688.04v.389H69.656v-.389a4.332,4.332,0,0,0,.826-.065.939.939,0,0,0,.51-.259,1.038,1.038,0,0,0,.251-.542,5.311,5.311,0,0,0,.065-.931v-9.033q0-.874-.016-1.4a5.845,5.845,0,0,0-.049-.7.936.936,0,0,0-.259-.55.692.692,0,0,0-.453-.146,1.951,1.951,0,0,0-.68.194l-.194-.389,2.963-1.214Z" transform="translate(2588.376 -10758.751)" fill="#2d2d2d"/>
    <path id="Path_77783" data-name="Path 77783" d="M3.468-6.346A3.334,3.334,0,0,1,2.06-7.585a3.272,3.272,0,0,1-.486-1.756,3.33,3.33,0,0,1,.3-1.4A3.63,3.63,0,0,1,2.7-11.891a3.849,3.849,0,0,1,1.255-.777,4.34,4.34,0,0,1,1.586-.283,4.308,4.308,0,0,1,2.461.7h2.1q.243,0,.372.008t.186.016q.057.008.065.032a.444.444,0,0,0,.024.057.463.463,0,0,1,.057.21q.008.13.008.308,0,.227-.105.283a1.8,1.8,0,0,1-.607.057H8.81a3.221,3.221,0,0,1,.615,2.007A3.081,3.081,0,0,1,9.15-7.99a3.226,3.226,0,0,1-.785,1.068,3.741,3.741,0,0,1-1.238.728,4.674,4.674,0,0,1-1.619.267,5.94,5.94,0,0,1-.753-.049A4.568,4.568,0,0,1,4-6.136a2.886,2.886,0,0,0-.648.72,1.141,1.141,0,0,0-.162.526.583.583,0,0,0,.065.291.539.539,0,0,0,.308.194,3.573,3.573,0,0,0,.72.13q.478.049,1.3.065,1.117.032,1.837.081t1.06.081a2.63,2.63,0,0,1,1.611.737,2.064,2.064,0,0,1,.591,1.5A2.711,2.711,0,0,1,10.227-.3,4.408,4.408,0,0,1,8.988.93a6.606,6.606,0,0,1-1.781.834,7.032,7.032,0,0,1-2.072.308A7.45,7.45,0,0,1,3.614,1.91a7.191,7.191,0,0,1-1.408-.437A3.474,3.474,0,0,1,1.177.817,1.125,1.125,0,0,1,.781,0,1.738,1.738,0,0,1,.837-.454a1.713,1.713,0,0,1,.259-.5,7.048,7.048,0,0,1,.6-.72q.4-.429,1.06-1.125a3.29,3.29,0,0,1-.793-.607.913.913,0,0,1-.227-.607,1.556,1.556,0,0,1,.057-.4A1.681,1.681,0,0,1,2.027-4.9a4.546,4.546,0,0,1,.526-.623A12.076,12.076,0,0,1,3.468-6.346ZM3.355-2.72A3.139,3.139,0,0,0,2.335-.81a.9.9,0,0,0,.3.664,2.433,2.433,0,0,0,.809.494,5.841,5.841,0,0,0,1.19.316A8.868,8.868,0,0,0,6.091.777,6.519,6.519,0,0,0,7.79.582,4,4,0,0,0,8.972.072a2.246,2.246,0,0,0,.7-.7A1.488,1.488,0,0,0,9.9-1.393a.917.917,0,0,0-.113-.469.844.844,0,0,0-.429-.324,3.386,3.386,0,0,0-.858-.194q-.542-.065-1.384-.1A32.421,32.421,0,0,1,3.355-2.72Zm2.007-9.713a1.709,1.709,0,0,0-1.344.639,2.961,2.961,0,0,0-.55,1.967,5.933,5.933,0,0,0,.146,1.352A3.537,3.537,0,0,0,4.043-7.4a2.183,2.183,0,0,0,.68.7,1.674,1.674,0,0,0,.915.251A1.722,1.722,0,0,0,7-7.059a2.951,2.951,0,0,0,.534-1.959,5.933,5.933,0,0,0-.146-1.352,3.79,3.79,0,0,0-.421-1.085,2.132,2.132,0,0,0-.68-.72A1.675,1.675,0,0,0,5.362-12.433Zm11.862-5.715V-4.97A5.814,5.814,0,0,0,17.3-3.918a1.059,1.059,0,0,0,.259.559.79.79,0,0,0,.494.219,7.66,7.66,0,0,0,.777.032v.389H13.954v-.389a3.323,3.323,0,0,0,.777-.073.756.756,0,0,0,.445-.283,1.244,1.244,0,0,0,.2-.575,7.281,7.281,0,0,0,.049-.931v-9.017q0-1.02-.04-1.578a3.516,3.516,0,0,0-.13-.818q-.089-.259-.235-.3a1.349,1.349,0,0,0-.356-.04,1.81,1.81,0,0,0-.712.178l-.178-.389,2.963-1.214Zm9.5,5.2a4.491,4.491,0,0,1,1.91.4,4.793,4.793,0,0,1,1.514,1.093,5.057,5.057,0,0,1,1,1.619,5.349,5.349,0,0,1,.364,1.967,5.985,5.985,0,0,1-.4,2.218,5.338,5.338,0,0,1-1.077,1.724,4.861,4.861,0,0,1-1.57,1.117,4.526,4.526,0,0,1-1.862.4,4.257,4.257,0,0,1-1.886-.421,4.669,4.669,0,0,1-1.489-1.133,5.254,5.254,0,0,1-.971-1.651,5.636,5.636,0,0,1-.348-1.975,5.585,5.585,0,0,1,.372-2.032,5.723,5.723,0,0,1,1.02-1.708,4.907,4.907,0,0,1,1.522-1.182A4.176,4.176,0,0,1,26.723-12.951Zm-.34.712a2.135,2.135,0,0,0-.907.2,2.085,2.085,0,0,0-.777.648,3.556,3.556,0,0,0-.55,1.157,6.18,6.18,0,0,0-.21,1.732,9.084,9.084,0,0,0,.219,2.015,6.373,6.373,0,0,0,.623,1.692,3.635,3.635,0,0,0,.988,1.166,2.107,2.107,0,0,0,1.3.437,2.3,2.3,0,0,0,.963-.2,1.925,1.925,0,0,0,.769-.656,3.527,3.527,0,0,0,.51-1.19,7.482,7.482,0,0,0,.186-1.805,9.274,9.274,0,0,0-.21-2.015,6.006,6.006,0,0,0-.607-1.651,3.4,3.4,0,0,0-.971-1.117A2.2,2.2,0,0,0,26.383-12.239Zm11.2,1.3a4.023,4.023,0,0,1,3.108-2.007,3.246,3.246,0,0,1,1.441.34,3.691,3.691,0,0,1,1.222.971,4.884,4.884,0,0,1,.842,1.538,6.178,6.178,0,0,1,.316,2.04,5.861,5.861,0,0,1-.421,2.242,5.809,5.809,0,0,1-1.133,1.789,5.262,5.262,0,0,1-1.635,1.19,4.554,4.554,0,0,1-1.943.429,6.54,6.54,0,0,1-3.594-1.263v-10.3q0-1.02-.04-1.578a3.95,3.95,0,0,0-.121-.818q-.081-.259-.235-.308a1.215,1.215,0,0,0-.364-.049,1.979,1.979,0,0,0-.761.178l-.146-.389L37.1-18.148h.486Zm0,.7v5.941a3.371,3.371,0,0,0,2.347,1.1,1.955,1.955,0,0,0,.971-.275,2.719,2.719,0,0,0,.866-.809,4.6,4.6,0,0,0,.623-1.327,6.259,6.259,0,0,0,.243-1.829A5.592,5.592,0,0,0,42.4-9.131a3.863,3.863,0,0,0-.631-1.247,2.862,2.862,0,0,0-.9-.769,2.179,2.179,0,0,0-1.036-.267,2.553,2.553,0,0,0-.5.049,2.355,2.355,0,0,0-.51.17,2.843,2.843,0,0,0-.567.356Q37.953-10.6,37.581-10.248Zm15.909,6.1q-.777.583-1.255.931a4.131,4.131,0,0,1-.672.429,2.953,2.953,0,0,1-1.247.275A2.354,2.354,0,0,1,49.37-2.7a2.255,2.255,0,0,1-.745-.518,2.362,2.362,0,0,1-.494-.8,2.948,2.948,0,0,1-.178-1.052,2.678,2.678,0,0,1,.267-1.214,2.957,2.957,0,0,1,.826-.979A6.1,6.1,0,0,1,50.5-8.079q1.392-.648,2.995-1.23V-9.7a5.4,5.4,0,0,0-.121-1.247,2.007,2.007,0,0,0-.364-.8,1.309,1.309,0,0,0-.583-.421,2.3,2.3,0,0,0-.777-.121,1.563,1.563,0,0,0-1.1.372,1.121,1.121,0,0,0-.4.842l.032.631a1.082,1.082,0,0,1-.251.769.878.878,0,0,1-.672.267.859.859,0,0,1-.664-.283,1.1,1.1,0,0,1-.259-.769,1.859,1.859,0,0,1,.243-.9,2.54,2.54,0,0,1,.712-.8,3.835,3.835,0,0,1,1.141-.575,5,5,0,0,1,1.546-.219,4.992,4.992,0,0,1,1.951.34,2.132,2.132,0,0,1,1.157,1.166,5.98,5.98,0,0,1,.194,1.91v3.367q0,.858.024,1.319a3.05,3.05,0,0,0,.089.672q.065.21.162.251a.634.634,0,0,0,.243.04A.662.662,0,0,0,56-3.918a.842.842,0,0,0,.227-.13,2.911,2.911,0,0,0,.3-.267l.445-.445v.615q-1.214,1.619-2.315,1.619a1.074,1.074,0,0,1-.842-.364A1.894,1.894,0,0,1,53.49-4.145Zm0-.712V-8.645q-1.133.453-2.59,1.166a2.034,2.034,0,0,0-.834.777,2.138,2.138,0,0,0-.3,1.117,1.965,1.965,0,0,0,.13.72,1.952,1.952,0,0,0,.34.575,1.536,1.536,0,0,0,.494.38,1.336,1.336,0,0,0,.591.138A3.93,3.93,0,0,0,53.49-4.857Z" transform="translate(2612.639 -10739.198)" fill="#7e7e7e"/>
    <path id="Path_77785" data-name="Path 77785" d="M73.387-18.148V-4.97a5.814,5.814,0,0,0,.073,1.052,1.059,1.059,0,0,0,.259.559.79.79,0,0,0,.494.219,7.66,7.66,0,0,0,.777.032v.389H70.117v-.389a3.323,3.323,0,0,0,.777-.073.756.756,0,0,0,.445-.283,1.244,1.244,0,0,0,.2-.575,7.28,7.28,0,0,0,.049-.931v-9.017q0-1.02-.04-1.578a3.515,3.515,0,0,0-.13-.818q-.089-.259-.235-.3a1.349,1.349,0,0,0-.356-.04,1.81,1.81,0,0,0-.712.178l-.178-.389L72.9-18.148Z" transform="translate(2602.273 -10739.198)" fill="#da240d"/>
    <path id="Rectangle_14882" data-name="Rectangle 14882" d="M0,0H3.226a4,4,0,0,1,4,4V49.307a0,0,0,0,1,0,0H0a0,0,0,0,1,0,0V0A0,0,0,0,1,0,0Z" transform="translate(2576.804 -10782)" fill="#232323"/>
    <rect id="Rectangle_14885" data-name="Rectangle 14885" width="7.226" height="20.02" transform="translate(2582.967 -10760.96) rotate(90)" fill="#232323"/>
    <path id="Rectangle_14883" data-name="Rectangle 14883" d="M0,0H3.226a4,4,0,0,1,4,4V14.452a0,0,0,0,1,0,0H0a0,0,0,0,1,0,0V0A0,0,0,0,1,0,0Z" transform="translate(2562.947 -10782)" fill="#232323"/>
    <path id="Rectangle_14884" data-name="Rectangle 14884" d="M0,0H3.226a4,4,0,0,1,4,4V14.452a0,0,0,0,1,0,0H0a0,0,0,0,1,0,0V0A0,0,0,0,1,0,0Z" transform="translate(2549.6 -10782)" fill="#232323"/>
  </g>
</svg>
